<mxfile host="app.diagrams.net" modified="2023-12-18T11:52:26.318Z" agent="Mozilla/5.0 (Macintosh; Intel Mac OS X 10_15_7) AppleWebKit/537.36 (KHTML, like Gecko) Chrome/119.0.0.0 Safari/537.36" etag="n03azCdQKe-rzaY6cVrM" version="22.1.11" type="device">
  <diagram name="Seite-1" id="W9tDQCR933CwZhbCbMkX">
    <mxGraphModel dx="1206" dy="774" grid="1" gridSize="10" guides="1" tooltips="1" connect="1" arrows="1" fold="1" page="1" pageScale="1" pageWidth="1169" pageHeight="827" background="#ffffff" math="0" shadow="0">
      <root>
        <mxCell id="0" />
        <mxCell id="1" parent="0" />
        <mxCell id="kMTgdovrJokj4R2NliFG-6" value="&lt;font color=&quot;#4a4a4a&quot;&gt;&lt;br&gt;OSM&lt;/font&gt;" style="strokeWidth=2;html=1;shape=mxgraph.flowchart.database;whiteSpace=wrap;strokeColor=#4A4A4A;" parent="1" vertex="1">
          <mxGeometry x="520" y="80" width="80" height="80" as="geometry" />
        </mxCell>
        <mxCell id="kMTgdovrJokj4R2NliFG-8" value="" style="endArrow=classic;html=1;rounded=0;entryX=0.5;entryY=0;entryDx=0;entryDy=0;" parent="1" edge="1" target="kMTgdovrJokj4R2NliFG-19">
          <mxGeometry width="50" height="50" relative="1" as="geometry">
            <mxPoint x="560" y="160" as="sourcePoint" />
            <mxPoint x="559.5799999999999" y="210" as="targetPoint" />
          </mxGeometry>
        </mxCell>
        <mxCell id="kMTgdovrJokj4R2NliFG-13" value="" style="endArrow=classic;html=1;rounded=0;exitX=0.5;exitY=1;exitDx=0;exitDy=0;exitPerimeter=0;entryX=0.5;entryY=0;entryDx=0;entryDy=0;" parent="1" edge="1">
          <mxGeometry width="50" height="50" relative="1" as="geometry">
            <mxPoint x="400" y="410" as="sourcePoint" />
            <mxPoint x="400" y="460" as="targetPoint" />
          </mxGeometry>
        </mxCell>
        <mxCell id="kMTgdovrJokj4R2NliFG-14" value="&lt;font color=&quot;#765a82&quot;&gt;Intersect&lt;/font&gt;" style="rounded=1;whiteSpace=wrap;html=1;absoluteArcSize=1;arcSize=14;strokeWidth=2;fillColor=#e1d5e7;strokeColor=#9673A6;" parent="1" vertex="1">
          <mxGeometry x="520" y="460" width="80" height="80" as="geometry" />
        </mxCell>
        <mxCell id="kMTgdovrJokj4R2NliFG-15" value="" style="endArrow=classic;html=1;rounded=0;exitX=1;exitY=0.5;exitDx=0;exitDy=0;entryX=0;entryY=0.5;entryDx=0;entryDy=0;" parent="1" target="kMTgdovrJokj4R2NliFG-14" edge="1">
          <mxGeometry width="50" height="50" relative="1" as="geometry">
            <mxPoint x="440" y="500" as="sourcePoint" />
            <mxPoint x="610" y="390" as="targetPoint" />
          </mxGeometry>
        </mxCell>
        <mxCell id="kMTgdovrJokj4R2NliFG-16" value="" style="endArrow=classic;html=1;rounded=0;exitX=0.5;exitY=1;exitDx=0;exitDy=0;exitPerimeter=0;" parent="1" target="kMTgdovrJokj4R2NliFG-14" edge="1">
          <mxGeometry width="50" height="50" relative="1" as="geometry">
            <mxPoint x="560" y="410" as="sourcePoint" />
            <mxPoint x="610" y="390" as="targetPoint" />
          </mxGeometry>
        </mxCell>
        <mxCell id="kMTgdovrJokj4R2NliFG-17" value="&lt;font color=&quot;#6281ad&quot;&gt;Marked&lt;br&gt;Points&lt;/font&gt;" style="shape=parallelogram;html=1;strokeWidth=2;perimeter=parallelogramPerimeter;whiteSpace=wrap;rounded=1;arcSize=12;size=0.23;labelBackgroundColor=none;fillColor=#dae8fc;strokeColor=#6c8ebf;" parent="1" vertex="1">
          <mxGeometry x="195" y="350" width="100" height="60" as="geometry" />
        </mxCell>
        <mxCell id="kMTgdovrJokj4R2NliFG-18" value="&lt;font color=&quot;#6281ad&quot;&gt;Trip&lt;/font&gt;" style="shape=parallelogram;html=1;strokeWidth=2;perimeter=parallelogramPerimeter;whiteSpace=wrap;rounded=1;arcSize=12;size=0.23;fillColor=#dae8fc;strokeColor=#6c8ebf;" parent="1" vertex="1">
          <mxGeometry x="350" y="350" width="100" height="60" as="geometry" />
        </mxCell>
        <mxCell id="kMTgdovrJokj4R2NliFG-19" value="&lt;font color=&quot;#6281ad&quot;&gt;POI&lt;/font&gt;" style="shape=parallelogram;html=1;strokeWidth=2;perimeter=parallelogramPerimeter;whiteSpace=wrap;rounded=1;arcSize=12;size=0.23;fillColor=#dae8fc;strokeColor=#6c8ebf;" parent="1" vertex="1">
          <mxGeometry x="510" y="350" width="100" height="60" as="geometry" />
        </mxCell>
        <mxCell id="kMTgdovrJokj4R2NliFG-20" value="&lt;font color=&quot;#9e873f&quot;&gt;Tracking&lt;/font&gt;" style="strokeWidth=2;html=1;shape=mxgraph.flowchart.start_1;whiteSpace=wrap;fontStyle=1;fontSize=14;fillColor=#fff2cc;strokeColor=#d6b656;" parent="1" vertex="1">
          <mxGeometry x="260" y="79" width="120" height="80" as="geometry" />
        </mxCell>
        <mxCell id="kMTgdovrJokj4R2NliFG-21" value="&lt;font color=&quot;#9e873f&quot;&gt;&lt;b style=&quot;font-size: 14px;&quot;&gt;Visualize&lt;br&gt;Results&lt;/b&gt;&lt;/font&gt;" style="strokeWidth=2;html=1;shape=mxgraph.flowchart.start_1;whiteSpace=wrap;fillColor=#fff2cc;strokeColor=#d6b656;" parent="1" vertex="1">
          <mxGeometry x="340" y="590" width="120" height="80" as="geometry" />
        </mxCell>
        <mxCell id="kMTgdovrJokj4R2NliFG-22" value="" style="endArrow=classic;html=1;rounded=0;exitX=0.5;exitY=1;exitDx=0;exitDy=0;entryX=1;entryY=0.5;entryDx=0;entryDy=0;entryPerimeter=0;" parent="1" source="kMTgdovrJokj4R2NliFG-14" target="kMTgdovrJokj4R2NliFG-21" edge="1">
          <mxGeometry width="50" height="50" relative="1" as="geometry">
            <mxPoint x="480" y="460" as="sourcePoint" />
            <mxPoint x="540" y="620" as="targetPoint" />
            <Array as="points">
              <mxPoint x="560" y="630" />
            </Array>
          </mxGeometry>
        </mxCell>
        <mxCell id="kMTgdovrJokj4R2NliFG-23" value="" style="endArrow=classic;html=1;rounded=0;exitX=0.45;exitY=1.004;exitDx=0;exitDy=0;entryX=0;entryY=0.5;entryDx=0;entryDy=0;entryPerimeter=0;exitPerimeter=0;" parent="1" source="kMTgdovrJokj4R2NliFG-17" target="kMTgdovrJokj4R2NliFG-21" edge="1">
          <mxGeometry width="50" height="50" relative="1" as="geometry">
            <mxPoint x="480" y="560" as="sourcePoint" />
            <mxPoint x="530" y="510" as="targetPoint" />
            <Array as="points">
              <mxPoint x="240" y="630" />
            </Array>
          </mxGeometry>
        </mxCell>
        <mxCell id="kMTgdovrJokj4R2NliFG-24" value="&lt;font color=&quot;#6281ad&quot;&gt;Data&lt;/font&gt;" style="text;html=1;align=center;verticalAlign=middle;resizable=0;points=[];autosize=1;strokeColor=none;fillColor=none;rotation=-90;" parent="1" vertex="1">
          <mxGeometry x="130" y="365" width="50" height="30" as="geometry" />
        </mxCell>
        <mxCell id="kMTgdovrJokj4R2NliFG-27" value="&lt;font color=&quot;#765a82&quot;&gt;Analysis functions&lt;/font&gt;" style="text;html=1;align=center;verticalAlign=middle;resizable=0;points=[];autosize=1;strokeColor=none;fillColor=none;rotation=-90;" parent="1" vertex="1">
          <mxGeometry x="95" y="485" width="120" height="30" as="geometry" />
        </mxCell>
        <mxCell id="kMTgdovrJokj4R2NliFG-28" value="&lt;font color=&quot;#765a82&quot;&gt;Buffer&lt;br&gt;Linestring&lt;/font&gt;" style="rounded=1;whiteSpace=wrap;html=1;absoluteArcSize=1;arcSize=14;strokeWidth=2;fillColor=#e1d5e7;strokeColor=#9673a6;" parent="1" vertex="1">
          <mxGeometry x="360" y="460" width="80" height="80" as="geometry" />
        </mxCell>
        <mxCell id="kMTgdovrJokj4R2NliFG-29" value="&lt;div&gt;&lt;font color=&quot;#9e873f&quot;&gt;Website&lt;/font&gt;&lt;/div&gt;" style="text;html=1;align=center;verticalAlign=middle;resizable=0;points=[];autosize=1;strokeColor=none;fillColor=none;rotation=-90;" parent="1" vertex="1">
          <mxGeometry x="120" y="105" width="70" height="30" as="geometry" />
        </mxCell>
        <mxCell id="kMTgdovrJokj4R2NliFG-31" value="&lt;div&gt;&lt;font color=&quot;#9e873f&quot;&gt;Website&lt;/font&gt;&lt;/div&gt;" style="text;html=1;align=center;verticalAlign=middle;resizable=0;points=[];autosize=1;strokeColor=none;fillColor=none;rotation=-90;" parent="1" vertex="1">
          <mxGeometry x="120" y="615" width="70" height="30" as="geometry" />
        </mxCell>
        <mxCell id="9rTJGT4TL8mV1zkz64kR-1" value="&lt;font color=&quot;#765a82&quot;&gt;Analysis functions&lt;/font&gt;" style="text;html=1;align=center;verticalAlign=middle;resizable=0;points=[];autosize=1;strokeColor=none;fillColor=none;rotation=-90;" vertex="1" parent="1">
          <mxGeometry x="95" y="235" width="120" height="30" as="geometry" />
        </mxCell>
        <mxCell id="9rTJGT4TL8mV1zkz64kR-4" value="" style="endArrow=classic;html=1;rounded=0;entryX=0.45;entryY=0;entryDx=0;entryDy=0;entryPerimeter=0;" edge="1" parent="1" target="kMTgdovrJokj4R2NliFG-17">
          <mxGeometry width="50" height="50" relative="1" as="geometry">
            <mxPoint x="240" y="180" as="sourcePoint" />
            <mxPoint x="360" y="180" as="targetPoint" />
          </mxGeometry>
        </mxCell>
        <mxCell id="9rTJGT4TL8mV1zkz64kR-5" value="" style="endArrow=classic;html=1;rounded=0;entryX=0.5;entryY=0;entryDx=0;entryDy=0;exitX=0.5;exitY=1;exitDx=0;exitDy=0;" edge="1" parent="1" source="9rTJGT4TL8mV1zkz64kR-6" target="kMTgdovrJokj4R2NliFG-18">
          <mxGeometry width="50" height="50" relative="1" as="geometry">
            <mxPoint x="401" y="280" as="sourcePoint" />
            <mxPoint x="360" y="250" as="targetPoint" />
          </mxGeometry>
        </mxCell>
        <mxCell id="9rTJGT4TL8mV1zkz64kR-6" value="&lt;font color=&quot;#765a82&quot;&gt;Clean&lt;br&gt;Linestring&lt;/font&gt;" style="rounded=1;whiteSpace=wrap;html=1;absoluteArcSize=1;arcSize=14;strokeWidth=2;fillColor=#e1d5e7;strokeColor=#9673a6;" vertex="1" parent="1">
          <mxGeometry x="360" y="210" width="80" height="80" as="geometry" />
        </mxCell>
        <mxCell id="9rTJGT4TL8mV1zkz64kR-7" value="" style="endArrow=classic;html=1;rounded=0;entryX=0.5;entryY=0;entryDx=0;entryDy=0;" edge="1" parent="1" target="9rTJGT4TL8mV1zkz64kR-6">
          <mxGeometry width="50" height="50" relative="1" as="geometry">
            <mxPoint x="400" y="180" as="sourcePoint" />
            <mxPoint x="402" y="208" as="targetPoint" />
          </mxGeometry>
        </mxCell>
        <mxCell id="9rTJGT4TL8mV1zkz64kR-8" value="" style="endArrow=none;html=1;rounded=0;" edge="1" parent="1">
          <mxGeometry width="50" height="50" relative="1" as="geometry">
            <mxPoint x="240" y="180" as="sourcePoint" />
            <mxPoint x="400" y="180" as="targetPoint" />
          </mxGeometry>
        </mxCell>
        <mxCell id="9rTJGT4TL8mV1zkz64kR-9" value="" style="endArrow=none;html=1;rounded=0;entryX=0.5;entryY=1;entryDx=0;entryDy=0;entryPerimeter=0;" edge="1" parent="1" target="kMTgdovrJokj4R2NliFG-20">
          <mxGeometry width="50" height="50" relative="1" as="geometry">
            <mxPoint x="320" y="180" as="sourcePoint" />
            <mxPoint x="410" y="180" as="targetPoint" />
          </mxGeometry>
        </mxCell>
      </root>
    </mxGraphModel>
  </diagram>
</mxfile>
